<?xml version="1.0" standalone="no"?>
<!DOCTYPE svg PUBLIC "-//W3C//DTD SVG 20010904//EN"
 "http://www.w3.org/TR/2001/REC-SVG-20010904/DTD/svg10.dtd">
<svg version="1.0" xmlns="http://www.w3.org/2000/svg"
 width="512.000000pt" height="512.000000pt" viewBox="0 0 512.000000 512.000000"
 preserveAspectRatio="xMidYMid meet">
<metadata>
Created by potrace 1.14, written by Peter Selinger 2001-2017
</metadata>
<g transform="translate(0.000000,512.000000) scale(0.100000,-0.100000)"
fill="#000000" stroke="none">
<path d="M1185 5094 c-11 -11 -14 -24 -10 -38 19 -60 17 -72 -16 -100 -40 -34
-107 -68 -179 -91 -92 -29 -95 -39 -54 -129 49 -108 21 -132 -167 -138 -115
-3 -131 -6 -185 -33 -40 -20 -68 -43 -88 -72 -32 -46 -36 -90 -21 -259 6 -74
5 -96 -9 -121 -20 -41 -64 -71 -140 -99 -46 -16 -62 -27 -64 -43 -6 -36 14
-48 91 -55 39 -4 87 -10 105 -13 33 -5 34 -7 27 -42 -17 -95 -92 -186 -210
-255 -79 -47 -94 -67 -66 -95 17 -17 40 -19 237 -24 185 -4 382 -23 430 -41 8
-3 6 -35 -7 -108 -34 -194 -41 -364 -36 -829 3 -357 9 -485 26 -653 12 -114
24 -212 27 -217 8 -13 472 -245 537 -269 70 -25 163 -49 277 -69 69 -13 95
-21 93 -32 -1 -8 -14 -45 -28 -84 -36 -94 -55 -199 -55 -300 0 -62 -5 -96 -21
-132 -13 -32 -18 -58 -14 -80 3 -20 -2 -50 -15 -85 -11 -29 -47 -139 -80 -244
-51 -164 -60 -203 -60 -268 l0 -76 40 0 c40 0 40 0 40 39 0 67 54 251 150 514
35 95 41 99 109 76 28 -10 31 -15 27 -38 -14 -66 -106 -567 -106 -578 0 -18
137 -18 143 0 4 9 7 9 18 0 8 -9 42 -13 93 -12 71 0 77 2 51 11 -38 14 -73 36
-114 70 l-32 28 36 202 c20 112 54 291 76 398 22 107 46 231 55 275 8 44 18
93 22 109 l8 29 16 -39 c9 -22 21 -57 27 -80 11 -40 76 -134 93 -134 4 0 37
-26 71 -58 34 -32 76 -66 94 -77 l31 -18 -26 -35 c-25 -33 -26 -35 -25 -205 1
-140 6 -193 25 -285 l24 -114 -23 -15 c-12 -8 -49 -26 -80 -39 l-58 -24 88 0
c63 0 94 4 112 16 21 14 26 14 54 0 24 -13 68 -16 234 -16 l204 0 44 29 c24
17 55 41 68 55 31 33 37 33 50 -5 16 -48 14 -55 -21 -67 -27 -8 -13 -10 81
-11 l115 -1 -27 28 c-16 17 -47 84 -83 182 -63 172 -134 380 -134 391 0 8 99
43 105 37 12 -11 216 -440 229 -482 19 -55 24 -113 12 -139 -7 -15 -3 -17 33
-17 l41 0 0 43 c0 23 -5 62 -11 87 -16 72 -95 278 -155 406 -45 95 -54 122
-45 136 9 14 5 31 -18 80 -22 46 -32 91 -41 167 -12 110 -47 247 -80 311 -11
22 -20 43 -20 48 0 5 48 17 108 26 144 23 335 70 639 155 276 78 369 109 456
152 56 29 57 30 57 72 0 24 -9 140 -20 258 -11 117 -24 293 -30 389 -5 96 -13
214 -16 263 -5 61 -4 87 4 87 6 0 10 6 8 13 -3 6 -7 33 -10 59 -5 45 -4 47 22
50 26 3 27 5 24 58 -1 30 -4 65 -7 77 -4 19 0 22 46 28 l50 7 -3 36 c-2 27 1
37 12 39 8 1 31 4 52 8 l36 6 -5 59 c-5 53 -4 60 11 54 11 -4 16 -1 16 12 -1
73 -137 554 -191 672 -117 260 -385 554 -645 708 -271 161 -629 257 -1061 284
-158 10 -197 10 -295 -5 -257 -37 -453 -95 -648 -191 -69 -34 -128 -60 -132
-58 -3 2 -19 32 -35 67 -77 162 -304 447 -358 447 -7 0 -21 -7 -30 -16z m1913
-394 c211 -36 317 -67 435 -125 118 -59 176 -99 304 -209 216 -186 392 -391
477 -556 38 -74 76 -175 76 -203 0 -5 -55 43 -121 107 -67 64 -124 115 -126
113 -2 -2 24 -126 57 -275 33 -149 60 -276 60 -282 0 -7 -6 -10 -14 -7 -8 3
-104 29 -213 57 -109 28 -205 53 -214 56 -11 3 -38 60 -74 152 -32 81 -83 196
-113 256 -53 105 -124 196 -152 196 -11 0 -12 -46 -7 -252 l7 -253 -48 100
c-40 81 -130 237 -222 383 -10 16 -23 22 -40 20 -41 -5 -39 -80 9 -283 45
-195 81 -367 81 -389 0 -14 -32 -16 -268 -16 l-268 0 -11 28 c-6 15 -31 74
-56 132 -24 58 -68 166 -97 240 -52 133 -155 350 -166 350 -3 0 -2 -129 2
-287 5 -159 8 -308 9 -332 l0 -44 -230 -74 c-126 -40 -244 -76 -260 -79 l-30
-6 -44 204 c-59 272 -77 348 -108 443 l-26 80 -14 -33 c-19 -46 -41 -135 -54
-211 -9 -61 -79 -681 -79 -707 0 -6 -33 -31 -72 -54 -71 -41 -78 -43 -224 -60
-83 -9 -157 -21 -164 -25 -12 -7 -11 -36 7 -163 5 -40 7 -43 32 -38 14 3 47 8
73 11 l47 6 7 -50 c7 -55 -3 -51 93 -36 29 4 30 3 36 -43 12 -92 12 -92 54
-92 l38 0 7 -62 c4 -34 13 -67 21 -72 8 -7 20 -62 29 -136 45 -341 111 -586
174 -643 29 -26 76 -19 80 11 2 13 7 22 10 20 21 -10 138 -71 141 -74 2 -1
-20 -30 -49 -63 -37 -42 -60 -61 -76 -61 -16 0 -24 6 -24 18 0 9 -9 36 -20 59
-29 66 -80 52 -80 -21 0 -14 -3 -26 -6 -26 -19 0 -211 64 -220 74 -6 6 -18 59
-27 119 -9 59 -24 124 -32 144 -14 34 -17 35 -32 21 -10 -10 -21 -56 -31 -126
l-15 -111 -78 40 c-56 28 -80 45 -84 62 -2 12 -13 105 -24 206 -19 180 -32
224 -59 207 -17 -10 -31 -97 -38 -231 -4 -69 -9 -125 -12 -125 -13 0 -82 54
-82 64 0 6 -7 148 -16 316 -28 544 -21 982 18 1134 17 67 156 335 236 456 367
551 840 880 1515 1050 61 16 134 29 160 29 27 1 128 -13 225 -29z m599 -1370
l20 -45 122 -40 c66 -21 121 -42 121 -45 0 -3 -66 -14 -147 -24 -502 -59 -749
-88 -833 -96 -52 -6 -149 -17 -215 -25 -557 -68 -1086 -127 -1090 -123 -3 2 4
125 15 274 11 148 20 283 20 299 1 50 14 12 70 -200 29 -110 57 -203 64 -207
15 -11 46 -3 220 54 83 27 219 67 301 88 l150 39 -3 83 c-1 46 -5 106 -7 133
-4 45 -1 38 34 -60 21 -60 52 -140 70 -176 l32 -66 142 -6 c78 -4 244 -7 370
-7 215 0 227 1 227 19 0 10 -11 78 -25 151 -14 73 -25 140 -25 149 0 9 21 -24
46 -74 56 -111 132 -235 144 -235 5 0 19 30 31 68 18 54 23 99 27 231 l4 164
48 -139 c26 -76 56 -159 67 -184z m728 14 c37 -47 66 -86 64 -88 -2 -2 -23 -6
-45 -9 l-41 -5 -22 80 c-12 43 -24 85 -28 93 -11 29 5 14 72 -71z m-802 -424
c4 -41 5 -81 2 -87 -3 -10 13 -11 69 -6 l74 6 7 -72 c4 -40 5 -74 2 -77 -2 -2
-34 -7 -72 -11 -79 -7 -85 -2 -85 72 0 71 -6 75 -81 73 l-64 -3 -9 78 c-5 43
-6 80 -4 83 6 6 118 22 138 20 11 -1 17 -21 23 -76z m-269 -56 l7 -61 -67 -7
c-37 -4 -68 -5 -70 -3 -5 5 -23 141 -19 145 1 2 31 6 66 10 74 8 73 10 83 -84z
m-282 -44 c9 -69 17 -126 17 -127 1 -2 14 -3 30 -3 34 0 36 -5 46 -104 l7 -68
53 7 52 6 9 -78 c9 -75 10 -78 34 -76 97 9 265 27 519 58 161 19 301 35 311
35 21 0 60 -94 60 -144 0 -51 -44 -127 -117 -198 -88 -86 -111 -104 -213 -170
-317 -203 -769 -376 -1110 -424 -229 -32 -543 3 -740 83 -149 61 -243 141
-298 254 -29 57 -99 296 -90 304 2 2 102 15 223 30 121 14 294 34 385 45 91
11 212 24 270 30 58 6 110 13 116 15 7 2 8 25 2 75 -5 40 -7 75 -4 77 2 2 26
8 53 12 26 4 47 11 47 17 -1 5 -5 46 -8 91 l-7 82 37 7 37 7 -7 61 c-4 33 -10
90 -13 126 l-6 66 129 16 c71 8 136 15 144 14 11 -1 19 -31 32 -126z m402 -82
c11 -98 13 -94 -56 -102 -34 -3 -63 -4 -66 -2 -2 3 -7 32 -11 66 -8 68 -4 76
49 83 81 9 77 12 84 -45z m-1629 -29 c4 -38 6 -72 4 -74 -2 -2 -29 -6 -60 -10
l-56 -7 -7 32 c-3 18 -6 52 -6 76 0 47 5 50 81 53 l37 1 7 -71z m-250 -6 c3
-27 8 -60 10 -75 4 -25 1 -27 -46 -33 -28 -4 -52 -5 -54 -3 -2 2 -8 35 -13 73
-11 80 -8 85 55 85 l42 0 6 -47z m2305 -60 c0 -16 3 -51 6 -80 l7 -51 -57 -7
c-31 -4 -59 -5 -62 -2 -3 3 -9 39 -13 81 -8 84 -11 81 82 85 34 1 37 -1 37
-26z m-266 -30 c3 -16 8 -49 12 -75 l6 -47 -33 -5 c-19 -3 -53 -7 -75 -10
l-41 -6 -7 46 c-3 26 -6 62 -6 80 0 31 3 33 38 37 95 10 100 9 106 -20z
m-1660 -5 c3 -13 6 -40 6 -60 l0 -37 -55 -6 c-31 -4 -57 -6 -59 -4 -2 2 -6 30
-10 61 l-6 57 32 4 c77 9 85 8 92 -15z m-239 -73 l7 -65 62 6 63 6 6 -68 c3
-38 2 -72 -1 -75 -4 -4 -33 -9 -64 -13 l-57 -6 -6 47 c-14 106 -11 102 -68
105 l-52 3 -7 55 c-8 64 -3 70 63 70 l47 0 7 -65z m389 -32 c2 -10 7 -44 11
-76 7 -64 9 -62 -67 -71 -54 -6 -52 -10 -63 96 l-6 57 38 4 c77 8 82 7 87 -10z
m2140 -548 c3 -60 9 -140 12 -176 l6 -66 -32 -11 c-18 -7 -36 -10 -40 -7 -4 3
-11 57 -15 120 -8 121 -15 134 -50 95 -15 -17 -20 -42 -23 -135 l-4 -114 -77
-30 -76 -30 -12 72 c-6 40 -12 73 -12 75 -1 1 -10 2 -20 2 -27 0 -33 -13 -51
-105 l-16 -79 -115 -36 -116 -37 -23 44 c-12 23 -26 43 -30 43 -17 0 -42 -42
-47 -78 l-5 -40 -107 -26 c-58 -14 -113 -26 -123 -26 -9 0 -26 16 -37 36 -28
46 -52 42 -65 -11 -11 -49 -19 -55 -74 -55 -34 0 -52 7 -82 33 -44 36 -49 47
-22 47 62 0 414 121 610 209 211 96 458 258 577 380 60 62 59 62 69 -94z
m-2219 -570 c-14 -48 -48 -194 -76 -323 -28 -130 -52 -239 -55 -244 -3 -4 -11
-5 -19 -1 -9 3 -39 8 -68 12 l-52 6 -3 75 c-5 138 43 289 132 413 50 71 158
177 163 161 2 -6 -8 -51 -22 -99z m848 37 c26 -15 70 -49 98 -77 89 -87 162
-273 176 -445 l5 -75 -73 -17 c-40 -10 -74 -16 -77 -14 -5 6 -192 629 -192
644 0 17 9 15 63 -16z m-653 -28 c17 -4 34 -14 37 -23 4 -9 25 -43 49 -77 l43
-61 -97 -6 c-53 -3 -101 -2 -106 3 -11 11 -13 83 -3 133 8 40 16 43 77 31z
m496 -21 c3 -16 10 -43 15 -62 4 -19 6 -45 3 -58 -6 -22 -11 -23 -85 -23 -43
0 -79 2 -79 4 0 2 14 30 30 61 17 31 30 63 30 71 0 15 32 32 62 33 11 1 20 -9
24 -26z m-156 -7 c0 -18 -81 -139 -97 -144 -10 -3 -133 139 -133 154 0 2 52 4
115 4 92 0 115 -3 115 -14z m22 -404 l47 -45 -19 -27 c-11 -15 -40 -50 -65
-78 l-47 -52 -57 40 c-32 23 -71 54 -87 71 l-28 29 57 58 c55 56 58 57 104 54
41 -3 55 -10 95 -50z m257 -31 c12 -38 21 -73 21 -78 0 -6 -42 -14 -92 -19
-92 -9 -93 -9 -96 -38 -2 -16 0 -32 5 -37 5 -5 52 -3 106 3 58 6 101 7 106 2
5 -5 11 -22 15 -38 l7 -29 -31 27 c-36 30 -68 33 -115 10 -42 -20 -65 -54 -67
-99 -2 -53 24 -75 87 -75 48 0 53 -2 59 -25 4 -14 18 -31 31 -37 22 -10 24
-15 19 -50 -4 -21 -3 -38 0 -38 19 0 49 24 66 53 l19 31 11 -30 c7 -16 30 -82
52 -147 l40 -117 -26 -35 c-30 -39 -95 -87 -159 -115 -76 -35 -202 -25 -324
26 -51 21 -64 31 -72 57 -22 71 -33 160 -38 319 l-6 166 96 100 c52 55 103
112 113 127 10 15 28 31 41 36 13 5 40 35 61 68 20 32 40 57 44 55 3 -2 15
-35 27 -73z m41 -120 c0 -5 -24 -12 -52 -15 -29 -4 -70 -9 -90 -12 -23 -4 -38
-2 -38 4 0 6 26 13 58 17 31 3 64 8 72 9 31 7 50 6 50 -3z m-1063 -52 c56 -10
63 -14 63 -34 0 -13 -4 -26 -9 -29 -8 -6 -141 21 -149 29 -5 5 17 45 25 45 4
0 35 -5 70 -11z m1363 -19 c8 -15 8 -21 -2 -24 -7 -3 -41 -13 -76 -25 l-63
-20 -8 22 c-10 27 2 36 74 53 67 16 63 17 75 -6z m-313 -42 c31 -35 43 -63 43
-103 0 -21 9 -49 21 -66 15 -22 18 -33 10 -46 -6 -10 -11 -12 -11 -5 0 6 -12
22 -26 35 -15 12 -33 36 -40 53 -13 31 -14 31 -54 21 -53 -15 -74 -2 -78 46
-6 72 87 117 135 65z m92 -136 c5 -18 8 -32 6 -32 -7 0 -35 58 -35 72 0 21 20
-5 29 -40z"/>
<path d="M2650 1815 c-17 -45 -12 -90 13 -112 41 -37 71 -46 172 -51 219 -10
385 48 373 130 -5 35 -45 38 -174 11 -90 -18 -141 -23 -211 -21 -51 2 -95 7
-99 11 -4 3 -7 17 -8 29 -1 17 -8 24 -28 26 -22 3 -30 -2 -38 -23z"/>
<path d="M2572 579 c-44 -16 -49 -97 -7 -113 49 -19 95 8 95 55 0 47 -42 75
-88 58z m48 -59 c0 -13 -7 -20 -19 -20 -22 0 -35 15 -26 30 12 19 45 11 45
-10z"/>
<path d="M2566 308 c-21 -29 -20 -51 2 -79 24 -28 79 -31 98 -4 20 26 17 69
-4 88 -27 25 -78 22 -96 -5z m74 -37 c0 -24 -25 -34 -40 -16 -15 18 -5 35 21
35 12 0 19 -7 19 -19z"/>
</g>
</svg>
